<svg width="144" height="43" viewBox="0 0 144 43" fill="none" xmlns="http://www.w3.org/2000/svg">
<path d="M7.992 20.886C9.828 21.012 11.223 21.597 12.177 22.641C13.149 23.685 13.572 25.17 13.446 27.096C13.32 28.716 12.816 29.967 11.934 30.849C11.07 31.731 9.774 32.172 8.046 32.172C7.578 32.172 7.155 32.172 6.777 32.172C6.417 32.172 6.066 32.154 5.724 32.118C5.382 32.064 5.04 31.974 4.698 31.848C4.356 31.722 3.978 31.533 3.564 31.281C3.168 31.029 2.835 30.723 2.565 30.363C2.313 30.003 2.106 29.616 1.944 29.202C1.782 28.77 1.665 28.329 1.593 27.879C1.539 27.429 1.512 26.988 1.512 26.556C1.512 25.584 1.674 24.729 1.998 23.991C2.322 23.253 2.772 22.641 3.348 22.155C3.924 21.669 4.608 21.318 5.4 21.102C6.192 20.886 7.056 20.814 7.992 20.886ZM20.925 30.201C21.015 30.183 21.096 30.183 21.168 30.201C21.258 30.219 21.348 30.228 21.438 30.228C21.546 30.246 21.645 30.264 21.735 30.282C21.843 30.282 21.951 30.291 22.059 30.309C22.257 30.345 22.455 30.417 22.653 30.525C22.851 30.615 23.004 30.759 23.112 30.957C23.22 31.173 23.274 31.416 23.274 31.686C23.274 31.812 23.274 31.938 23.274 32.064C23.274 32.19 23.256 32.316 23.22 32.442C23.184 32.586 23.139 32.739 23.085 32.901C23.031 33.063 22.95 33.189 22.842 33.279C22.608 33.459 22.356 33.576 22.086 33.63C21.798 33.666 21.447 33.675 21.033 33.657C20.619 33.639 20.268 33.639 19.98 33.657C19.962 33.675 19.944 33.684 19.926 33.684H19.899V33.711C19.899 33.729 19.89 33.747 19.872 33.765C19.872 33.765 19.872 33.774 19.872 33.792C19.854 34.242 19.845 34.674 19.845 35.088C19.863 35.484 19.872 35.916 19.872 36.384C19.908 37.32 19.908 38.238 19.872 39.138V39.516C19.872 39.75 19.872 40.011 19.872 40.299C19.872 40.569 19.845 40.839 19.791 41.109C19.755 41.379 19.692 41.64 19.602 41.892C19.53 42.144 19.413 42.351 19.251 42.513C18.981 42.747 18.684 42.864 18.36 42.864H18.306C17.874 42.846 17.523 42.711 17.253 42.459C17.001 42.225 16.812 41.937 16.686 41.595C16.56 41.253 16.479 40.902 16.443 40.542C16.407 40.164 16.389 39.831 16.389 39.543V23.505C16.389 23.487 16.389 23.406 16.389 23.262C16.389 23.1 16.398 22.92 16.416 22.722C16.452 22.506 16.506 22.29 16.578 22.074C16.668 21.84 16.785 21.651 16.929 21.507C17.073 21.381 17.262 21.291 17.496 21.237C17.73 21.165 17.946 21.129 18.144 21.129C18.558 21.129 18.9 21.264 19.17 21.534C19.404 21.786 19.548 22.056 19.602 22.344C19.656 22.614 19.692 22.902 19.71 23.208C19.728 23.262 19.737 23.316 19.737 23.37C19.737 23.424 19.746 23.487 19.764 23.559C19.8 23.847 19.818 24.153 19.818 24.477C19.818 24.801 19.827 25.125 19.845 25.449C19.845 25.647 19.845 25.845 19.845 26.043C19.863 26.223 19.872 26.412 19.872 26.61V29.526C19.872 29.616 19.872 29.715 19.872 29.823C19.872 29.931 19.89 30.03 19.926 30.12C19.926 30.138 20.016 30.147 20.196 30.147C20.376 30.147 20.484 30.156 20.52 30.174C20.574 30.174 20.628 30.183 20.682 30.201C20.754 30.201 20.817 30.201 20.871 30.201H20.925ZM2.97 37.464C3.006 37.446 3.123 37.446 3.321 37.464C3.519 37.464 3.735 37.473 3.969 37.491C4.221 37.491 4.464 37.5 4.698 37.518C4.95 37.518 5.13 37.518 5.238 37.518C5.256 37.374 5.265 37.113 5.265 36.735C5.283 36.357 5.301 35.97 5.319 35.574C5.337 35.16 5.355 34.791 5.373 34.467C5.391 34.125 5.409 33.927 5.427 33.873C5.499 33.657 5.607 33.477 5.751 33.333C5.895 33.171 6.066 33.045 6.264 32.955C6.462 32.883 6.669 32.847 6.885 32.847C7.281 32.847 7.632 32.955 7.938 33.171C8.244 33.369 8.442 33.63 8.532 33.954C8.55 34.026 8.568 34.224 8.586 34.548C8.604 34.872 8.613 35.232 8.613 35.628C8.631 36.024 8.64 36.402 8.64 36.762C8.64 37.122 8.64 37.365 8.64 37.491V37.518H13.041C13.635 37.518 14.112 37.626 14.472 37.842C14.67 37.968 14.823 38.139 14.931 38.355C15.039 38.553 15.102 38.769 15.12 39.003C15.156 39.237 15.147 39.471 15.093 39.705C15.057 39.939 14.994 40.137 14.904 40.299C14.742 40.587 14.508 40.767 14.202 40.839C13.896 40.893 13.599 40.92 13.311 40.92H2.646C2.646 40.92 2.592 40.92 2.484 40.92C2.376 40.902 2.25 40.884 2.106 40.866C1.962 40.83 1.809 40.794 1.647 40.758C1.485 40.722 1.341 40.677 1.215 40.623C0.837 40.425 0.603 40.056 0.513 39.516C0.477 39.228 0.495 38.958 0.567 38.706C0.657 38.454 0.792 38.247 0.972 38.085C1.296 37.815 1.629 37.644 1.971 37.572C2.331 37.5 2.664 37.464 2.97 37.464ZM10.341 27.204C10.431 26.556 10.323 25.953 10.017 25.395C9.729 24.837 9.297 24.459 8.721 24.261C8.343 24.135 7.929 24.072 7.479 24.072C7.029 24.072 6.597 24.153 6.183 24.315C5.787 24.459 5.436 24.693 5.13 25.017C4.842 25.323 4.662 25.728 4.59 26.232C4.536 26.574 4.536 26.925 4.59 27.285C4.644 27.627 4.761 27.942 4.941 28.23C5.139 28.5 5.409 28.734 5.751 28.932C6.093 29.13 6.525 29.256 7.047 29.31C7.407 29.346 7.758 29.346 8.1 29.31C8.46 29.274 8.784 29.184 9.072 29.04C9.378 28.896 9.639 28.698 9.855 28.446C10.071 28.176 10.224 27.834 10.314 27.42L10.341 27.204ZM26.4695 29.148H26.9555H27.6845H33.1115H34.6505H36.5405C36.9005 29.112 37.2245 29.094 37.5125 29.094C37.8005 29.094 38.1065 29.094 38.4305 29.094C38.4305 28.734 38.4395 28.365 38.4575 27.987C38.4935 27.609 38.5115 27.24 38.5115 26.88V26.232C38.4755 26.142 38.4485 26.061 38.4305 25.989C38.4305 25.917 38.4125 25.854 38.3765 25.8C38.2865 25.728 38.2055 25.665 38.1335 25.611C38.0615 25.539 37.9625 25.476 37.8365 25.422C37.7465 25.422 37.6385 25.413 37.5125 25.395C37.4045 25.377 37.3055 25.368 37.2155 25.368H36.4865H35.8655H34.9475C34.5875 25.368 34.2725 25.368 34.0025 25.368C33.7325 25.35 33.4715 25.341 33.2195 25.341C32.9855 25.341 32.7335 25.341 32.4635 25.341C32.2115 25.341 31.9055 25.35 31.5455 25.368C29.9615 25.422 28.4045 25.422 26.8745 25.368C26.6945 25.332 26.5325 25.314 26.3885 25.314C26.2445 25.296 26.1005 25.269 25.9565 25.233C25.6325 25.143 25.3805 24.972 25.2005 24.72C25.0385 24.45 24.9395 24.162 24.9035 23.856C24.8855 23.532 24.9485 23.217 25.0925 22.911C25.2365 22.605 25.4705 22.362 25.7945 22.182C25.9745 22.038 26.1815 21.948 26.4155 21.912C26.6495 21.876 26.8835 21.84 27.1175 21.804C27.3695 21.804 27.6035 21.795 27.8195 21.777C28.0535 21.759 28.2965 21.75 28.5485 21.75H32.3285H33.5435C33.7055 21.768 33.8315 21.777 33.9215 21.777C34.0115 21.777 34.0925 21.777 34.1645 21.777C34.2545 21.777 34.3355 21.777 34.4075 21.777C34.4795 21.759 34.5785 21.75 34.7045 21.75C35.5505 21.75 36.3875 21.759 37.2155 21.777C38.0615 21.777 38.8985 21.813 39.7265 21.885C40.4105 21.957 40.9145 22.128 41.2385 22.398C41.5805 22.668 41.8055 23.001 41.9135 23.397C42.0215 23.793 42.0665 24.234 42.0485 24.72C42.0305 25.188 42.0125 25.665 41.9945 26.151C41.9945 26.619 41.9765 26.997 41.9405 27.285C41.9045 27.555 41.8595 27.888 41.8055 28.284C41.8055 28.374 41.8055 28.509 41.8055 28.689C41.8055 28.869 41.7875 29.004 41.7515 29.094C41.8055 29.112 41.9135 29.13 42.0755 29.148C42.2375 29.148 42.4085 29.157 42.5885 29.175C42.7865 29.193 42.9665 29.211 43.1285 29.229C43.2905 29.247 43.3985 29.265 43.4525 29.283C43.7405 29.409 43.9385 29.58 44.0465 29.796C44.1725 30.012 44.2355 30.246 44.2355 30.498C44.2355 30.984 44.1095 31.362 43.8575 31.632C43.6055 31.884 43.2725 32.055 42.8585 32.145H41.3735H25.9565H25.6595C25.5695 32.145 25.4885 32.145 25.4165 32.145C25.3445 32.127 25.2635 32.091 25.1735 32.037C25.0835 32.037 24.9845 32.028 24.8765 32.01C24.7865 31.974 24.6785 31.938 24.5525 31.902C24.4445 31.866 24.3545 31.812 24.2825 31.74C24.2105 31.668 24.1385 31.596 24.0665 31.524C23.9405 31.47 23.8595 31.362 23.8235 31.2C23.7875 31.038 23.7695 30.867 23.7695 30.687C23.7695 30.489 23.7875 30.309 23.8235 30.147C23.8775 29.967 23.9855 29.823 24.1475 29.715C24.2375 29.625 24.3365 29.544 24.4445 29.472C24.5705 29.382 24.7145 29.337 24.8765 29.337C24.9665 29.301 25.0745 29.274 25.2005 29.256C25.3445 29.22 25.4795 29.202 25.6055 29.202H25.7945L25.8215 29.175C25.8395 29.175 25.8575 29.175 25.8755 29.175C25.8935 29.157 25.9205 29.148 25.9565 29.148H26.4695ZM41.3735 40.623C41.5355 40.623 41.6885 40.641 41.8325 40.677C41.9765 40.713 42.0935 40.776 42.1835 40.866C42.3815 40.902 42.5345 41.082 42.6425 41.406C42.8585 42.054 42.6155 42.522 41.9135 42.81C41.6795 42.9 41.4815 42.945 41.3195 42.945H40.6445H28.8185H27.6575H26.4965C26.2985 42.909 26.1185 42.864 25.9565 42.81C25.7945 42.756 25.6685 42.657 25.5785 42.513C25.3445 42.279 25.2005 41.937 25.1465 41.487L25.0655 39.597V38.976C25.0655 38.814 25.0835 38.661 25.1195 38.517C25.1735 38.355 25.2455 38.238 25.3355 38.166C25.4615 38.022 25.6055 37.914 25.7675 37.842C25.9475 37.752 26.1455 37.68 26.3615 37.626C26.5595 37.59 26.7485 37.563 26.9285 37.545C27.1265 37.509 27.3245 37.491 27.5225 37.491H28.8185H31.1945C31.6805 37.527 32.1935 37.554 32.7335 37.572C33.2735 37.572 33.9125 37.572 34.6505 37.572H39.5915V36.465H38.1875H31.7345H28.5485C28.2965 36.465 28.0265 36.483 27.7385 36.519C27.4505 36.537 27.1715 36.546 26.9015 36.546C26.6315 36.528 26.3705 36.483 26.1185 36.411C25.8665 36.339 25.6415 36.213 25.4435 36.033C25.2815 35.907 25.1645 35.754 25.0925 35.574C25.0205 35.376 24.9935 35.187 25.0115 35.007C25.0475 34.809 25.1195 34.638 25.2275 34.494C25.3355 34.332 25.4885 34.215 25.6865 34.143C25.9565 34.053 26.2265 33.999 26.4965 33.981C26.7845 33.963 27.0815 33.954 27.3875 33.954H28.1975H29.3585H30.8705H33.0845H35.9465H39.7805C40.7885 33.954 41.4995 34.098 41.9135 34.386C42.1655 34.512 42.3455 34.692 42.4535 34.926C42.5795 35.142 42.6425 35.394 42.6425 35.682V37.923C42.6425 38.049 42.6335 38.193 42.6155 38.355C42.6155 38.517 42.5705 38.661 42.4805 38.787C42.3365 39.039 42.1475 39.246 41.9135 39.408C41.5715 39.534 41.3285 39.597 41.1845 39.597H40.4555H28.3865V40.623H41.3735ZM52.7108 20.886C54.5468 21.012 55.9418 21.597 56.8958 22.641C57.8678 23.685 58.2908 25.17 58.1648 27.096C58.0388 28.716 57.5348 29.967 56.6528 30.849C55.7888 31.731 54.4928 32.172 52.7648 32.172C52.2968 32.172 51.8738 32.172 51.4958 32.172C51.1358 32.172 50.7848 32.154 50.4428 32.118C50.1008 32.064 49.7588 31.974 49.4168 31.848C49.0748 31.722 48.6968 31.533 48.2827 31.281C47.8868 31.029 47.5538 30.723 47.2838 30.363C47.0318 30.003 46.8248 29.616 46.6628 29.202C46.5008 28.77 46.3838 28.329 46.3118 27.879C46.2578 27.429 46.2308 26.988 46.2308 26.556C46.2308 25.584 46.3928 24.729 46.7168 23.991C47.0408 23.253 47.4908 22.641 48.0668 22.155C48.6428 21.669 49.3268 21.318 50.1188 21.102C50.9108 20.886 51.7748 20.814 52.7108 20.886ZM65.6438 30.201C65.7338 30.183 65.8148 30.183 65.8868 30.201C65.9768 30.219 66.0668 30.228 66.1568 30.228C66.2648 30.246 66.3638 30.264 66.4538 30.282C66.5618 30.282 66.6698 30.291 66.7778 30.309C66.9758 30.345 67.1738 30.417 67.3718 30.525C67.5698 30.615 67.7228 30.759 67.8308 30.957C67.9388 31.173 67.9928 31.416 67.9928 31.686C67.9928 31.812 67.9928 31.938 67.9928 32.064C67.9928 32.19 67.9748 32.316 67.9388 32.442C67.9028 32.586 67.8578 32.739 67.8038 32.901C67.7498 33.063 67.6688 33.189 67.5608 33.279C67.3268 33.459 67.0748 33.576 66.8048 33.63C66.5168 33.666 66.1658 33.675 65.7518 33.657C65.3378 33.639 64.9868 33.639 64.6988 33.657C64.6808 33.675 64.6628 33.684 64.6448 33.684H64.6178V33.711C64.6178 33.729 64.6088 33.747 64.5908 33.765C64.5908 33.765 64.5908 33.774 64.5908 33.792C64.5728 34.242 64.5638 34.674 64.5638 35.088C64.5818 35.484 64.5908 35.916 64.5908 36.384C64.6268 37.32 64.6268 38.238 64.5908 39.138V39.516C64.5908 39.75 64.5908 40.011 64.5908 40.299C64.5908 40.569 64.5638 40.839 64.5098 41.109C64.4738 41.379 64.4108 41.64 64.3208 41.892C64.2488 42.144 64.1318 42.351 63.9698 42.513C63.6998 42.747 63.4028 42.864 63.0788 42.864H63.0248C62.5928 42.846 62.2418 42.711 61.9718 42.459C61.7198 42.225 61.5308 41.937 61.4048 41.595C61.2788 41.253 61.1978 40.902 61.1618 40.542C61.1258 40.164 61.1078 39.831 61.1078 39.543V23.505C61.1078 23.487 61.1078 23.406 61.1078 23.262C61.1078 23.1 61.1168 22.92 61.1348 22.722C61.1708 22.506 61.2248 22.29 61.2968 22.074C61.3868 21.84 61.5038 21.651 61.6478 21.507C61.7918 21.381 61.9808 21.291 62.2148 21.237C62.4488 21.165 62.6648 21.129 62.8628 21.129C63.2768 21.129 63.6188 21.264 63.8888 21.534C64.1228 21.786 64.2668 22.056 64.3208 22.344C64.3748 22.614 64.4108 22.902 64.4288 23.208C64.4468 23.262 64.4558 23.316 64.4558 23.37C64.4558 23.424 64.4648 23.487 64.4828 23.559C64.5188 23.847 64.5368 24.153 64.5368 24.477C64.5368 24.801 64.5458 25.125 64.5638 25.449C64.5638 25.647 64.5638 25.845 64.5638 26.043C64.5818 26.223 64.5908 26.412 64.5908 26.61V29.526C64.5908 29.616 64.5908 29.715 64.5908 29.823C64.5908 29.931 64.6088 30.03 64.6448 30.12C64.6448 30.138 64.7348 30.147 64.9148 30.147C65.0948 30.147 65.2028 30.156 65.2388 30.174C65.2928 30.174 65.3468 30.183 65.4008 30.201C65.4728 30.201 65.5358 30.201 65.5898 30.201H65.6438ZM47.6888 37.464C47.7248 37.446 47.8418 37.446 48.0398 37.464C48.2378 37.464 48.4538 37.473 48.6877 37.491C48.9398 37.491 49.1828 37.5 49.4168 37.518C49.6688 37.518 49.8488 37.518 49.9568 37.518C49.9748 37.374 49.9838 37.113 49.9838 36.735C50.0018 36.357 50.0198 35.97 50.0378 35.574C50.0558 35.16 50.0738 34.791 50.0918 34.467C50.1098 34.125 50.1278 33.927 50.1458 33.873C50.2178 33.657 50.3258 33.477 50.4698 33.333C50.6138 33.171 50.7848 33.045 50.9828 32.955C51.1808 32.883 51.3878 32.847 51.6038 32.847C51.9998 32.847 52.3508 32.955 52.6567 33.171C52.9628 33.369 53.1608 33.63 53.2508 33.954C53.2688 34.026 53.2868 34.224 53.3048 34.548C53.3228 34.872 53.3318 35.232 53.3318 35.628C53.3498 36.024 53.3588 36.402 53.3588 36.762C53.3588 37.122 53.3588 37.365 53.3588 37.491V37.518H57.7598C58.3538 37.518 58.8308 37.626 59.1908 37.842C59.3888 37.968 59.5418 38.139 59.6498 38.355C59.7578 38.553 59.8208 38.769 59.8388 39.003C59.8748 39.237 59.8658 39.471 59.8118 39.705C59.7758 39.939 59.7128 40.137 59.6228 40.299C59.4608 40.587 59.2268 40.767 58.9208 40.839C58.6148 40.893 58.3178 40.92 58.0298 40.92H47.3648C47.3648 40.92 47.3108 40.92 47.2028 40.92C47.0948 40.902 46.9688 40.884 46.8248 40.866C46.6808 40.83 46.5278 40.794 46.3658 40.758C46.2038 40.722 46.0598 40.677 45.9338 40.623C45.5558 40.425 45.3218 40.056 45.2318 39.516C45.1958 39.228 45.2138 38.958 45.2858 38.706C45.3758 38.454 45.5108 38.247 45.6908 38.085C46.0148 37.815 46.3478 37.644 46.6898 37.572C47.0498 37.5 47.3828 37.464 47.6888 37.464ZM55.0598 27.204C55.1498 26.556 55.0418 25.953 54.7358 25.395C54.4478 24.837 54.0158 24.459 53.4398 24.261C53.0618 24.135 52.6478 24.072 52.1978 24.072C51.7478 24.072 51.3158 24.153 50.9018 24.315C50.5058 24.459 50.1548 24.693 49.8488 25.017C49.5608 25.323 49.3808 25.728 49.3088 26.232C49.2548 26.574 49.2548 26.925 49.3088 27.285C49.3628 27.627 49.4798 27.942 49.6598 28.23C49.8578 28.5 50.1278 28.734 50.4698 28.932C50.8118 29.13 51.2438 29.256 51.7658 29.31C52.1258 29.346 52.4768 29.346 52.8188 29.31C53.1788 29.274 53.5028 29.184 53.7908 29.04C54.0968 28.896 54.3578 28.698 54.5738 28.446C54.7898 28.176 54.9428 27.834 55.0328 27.42L55.0598 27.204ZM71.1882 29.148H71.6742H72.4032H77.8302H79.3692H81.2592C81.6192 29.112 81.9432 29.094 82.2312 29.094C82.5192 29.094 82.8252 29.094 83.1492 29.094C83.1492 28.734 83.1582 28.365 83.1762 27.987C83.2122 27.609 83.2302 27.24 83.2302 26.88V26.232C83.1942 26.142 83.1672 26.061 83.1492 25.989C83.1492 25.917 83.1312 25.854 83.0952 25.8C83.0052 25.728 82.9242 25.665 82.8522 25.611C82.7802 25.539 82.6812 25.476 82.5552 25.422C82.4652 25.422 82.3572 25.413 82.2312 25.395C82.1232 25.377 82.0242 25.368 81.9342 25.368H81.2052H80.5842H79.6662C79.3062 25.368 78.9912 25.368 78.7212 25.368C78.4512 25.35 78.1902 25.341 77.9382 25.341C77.7042 25.341 77.4522 25.341 77.1822 25.341C76.9302 25.341 76.6242 25.35 76.2642 25.368C74.6802 25.422 73.1232 25.422 71.5932 25.368C71.4132 25.332 71.2512 25.314 71.1072 25.314C70.9632 25.296 70.8192 25.269 70.6752 25.233C70.3512 25.143 70.0992 24.972 69.9192 24.72C69.7572 24.45 69.6582 24.162 69.6222 23.856C69.6042 23.532 69.6672 23.217 69.8112 22.911C69.9552 22.605 70.1892 22.362 70.5132 22.182C70.6932 22.038 70.9002 21.948 71.1342 21.912C71.3682 21.876 71.6022 21.84 71.8362 21.804C72.0882 21.804 72.3222 21.795 72.5382 21.777C72.7722 21.759 73.0152 21.75 73.2672 21.75H77.0472H78.2622C78.4242 21.768 78.5502 21.777 78.6402 21.777C78.7302 21.777 78.8112 21.777 78.8832 21.777C78.9732 21.777 79.0542 21.777 79.1262 21.777C79.1982 21.759 79.2972 21.75 79.4232 21.75C80.2692 21.75 81.1062 21.759 81.9342 21.777C82.7802 21.777 83.6172 21.813 84.4452 21.885C85.1292 21.957 85.6332 22.128 85.9572 22.398C86.2992 22.668 86.5242 23.001 86.6322 23.397C86.7402 23.793 86.7852 24.234 86.7672 24.72C86.7492 25.188 86.7312 25.665 86.7132 26.151C86.7132 26.619 86.6952 26.997 86.6592 27.285C86.6232 27.555 86.5782 27.888 86.5242 28.284C86.5242 28.374 86.5242 28.509 86.5242 28.689C86.5242 28.869 86.5062 29.004 86.4702 29.094C86.5242 29.112 86.6322 29.13 86.7942 29.148C86.9562 29.148 87.1272 29.157 87.3072 29.175C87.5052 29.193 87.6852 29.211 87.8472 29.229C88.0092 29.247 88.1172 29.265 88.1712 29.283C88.4592 29.409 88.6572 29.58 88.7652 29.796C88.8912 30.012 88.9542 30.246 88.9542 30.498C88.9542 30.984 88.8282 31.362 88.5762 31.632C88.3242 31.884 87.9912 32.055 87.5772 32.145H86.0922H70.6752H70.3782C70.2882 32.145 70.2072 32.145 70.1352 32.145C70.0632 32.127 69.9822 32.091 69.8922 32.037C69.8022 32.037 69.7032 32.028 69.5952 32.01C69.5052 31.974 69.3972 31.938 69.2712 31.902C69.1632 31.866 69.0732 31.812 69.0012 31.74C68.9292 31.668 68.8572 31.596 68.7852 31.524C68.6592 31.47 68.5782 31.362 68.5422 31.2C68.5062 31.038 68.4882 30.867 68.4882 30.687C68.4882 30.489 68.5062 30.309 68.5422 30.147C68.5962 29.967 68.7042 29.823 68.8662 29.715C68.9562 29.625 69.0552 29.544 69.1632 29.472C69.2892 29.382 69.4332 29.337 69.5952 29.337C69.6852 29.301 69.7932 29.274 69.9192 29.256C70.0632 29.22 70.1982 29.202 70.3242 29.202H70.5132L70.5402 29.175C70.5582 29.175 70.5762 29.175 70.5942 29.175C70.6122 29.157 70.6392 29.148 70.6752 29.148H71.1882ZM86.0922 40.623C86.2542 40.623 86.4072 40.641 86.5512 40.677C86.6952 40.713 86.8122 40.776 86.9022 40.866C87.1002 40.902 87.2532 41.082 87.3612 41.406C87.5772 42.054 87.3342 42.522 86.6322 42.81C86.3982 42.9 86.2002 42.945 86.0382 42.945H85.3632H73.5372H72.3762H71.2152C71.0172 42.909 70.8372 42.864 70.6752 42.81C70.5132 42.756 70.3872 42.657 70.2972 42.513C70.0632 42.279 69.9192 41.937 69.8652 41.487L69.7842 39.597V38.976C69.7842 38.814 69.8022 38.661 69.8382 38.517C69.8922 38.355 69.9642 38.238 70.0542 38.166C70.1802 38.022 70.3242 37.914 70.4862 37.842C70.6662 37.752 70.8642 37.68 71.0802 37.626C71.2782 37.59 71.4672 37.563 71.6472 37.545C71.8452 37.509 72.0432 37.491 72.2412 37.491H73.5372H75.9132C76.3992 37.527 76.9122 37.554 77.4522 37.572C77.9922 37.572 78.6312 37.572 79.3692 37.572H84.3102V36.465H82.9062H76.4532H73.2672C73.0152 36.465 72.7452 36.483 72.4572 36.519C72.1692 36.537 71.8902 36.546 71.6202 36.546C71.3502 36.528 71.0892 36.483 70.8372 36.411C70.5852 36.339 70.3602 36.213 70.1622 36.033C70.0002 35.907 69.8832 35.754 69.8112 35.574C69.7392 35.376 69.7122 35.187 69.7302 35.007C69.7662 34.809 69.8382 34.638 69.9462 34.494C70.0542 34.332 70.2072 34.215 70.4052 34.143C70.6752 34.053 70.9452 33.999 71.2152 33.981C71.5032 33.963 71.8002 33.954 72.1062 33.954H72.9162H74.0772H75.5892H77.8032H80.6652H84.4992C85.5072 33.954 86.2182 34.098 86.6322 34.386C86.8842 34.512 87.0642 34.692 87.1722 34.926C87.2982 35.142 87.3612 35.394 87.3612 35.682V37.923C87.3612 38.049 87.3522 38.193 87.3342 38.355C87.3342 38.517 87.2892 38.661 87.1992 38.787C87.0552 39.039 86.8662 39.246 86.6322 39.408C86.2902 39.534 86.0472 39.597 85.9032 39.597H85.1742H73.1052V40.623H86.0922Z" fill="#222222"/>
<path d="M73.633 13.552C73.597 13.696 73.552 13.831 73.498 13.957C73.444 14.083 73.399 14.2 73.363 14.308C73.219 14.614 73.048 14.902 72.85 15.172C72.67 15.442 72.472 15.703 72.256 15.955C71.662 16.621 70.969 16.954 70.177 16.954C69.421 16.954 68.764 16.81 68.206 16.522C67.936 16.378 67.675 16.234 67.423 16.09C67.171 15.928 66.928 15.766 66.694 15.604C66.46 15.424 66.235 15.262 66.019 15.118C65.803 14.956 65.587 14.803 65.371 14.659C64.921 14.353 64.453 14.2 63.967 14.2C63.391 14.2 62.806 14.344 62.212 14.632C62.05 14.722 61.906 14.83 61.78 14.956C61.654 15.064 61.528 15.181 61.402 15.307C61.276 15.415 61.141 15.514 60.997 15.604C60.853 15.694 60.691 15.748 60.511 15.766C60.061 15.802 59.728 15.667 59.512 15.361C59.314 15.037 59.287 14.668 59.431 14.254C59.575 13.786 59.827 13.372 60.187 13.012C60.565 12.652 60.943 12.328 61.321 12.04C62.095 11.482 62.923 11.176 63.805 11.122C64.489 11.086 65.065 11.203 65.533 11.473C65.785 11.617 66.019 11.77 66.235 11.932C66.469 12.076 66.694 12.238 66.91 12.418C67.108 12.598 67.315 12.769 67.531 12.931C67.765 13.075 67.999 13.219 68.233 13.363C68.683 13.633 69.241 13.768 69.907 13.768C70.267 13.732 70.564 13.642 70.798 13.498C71.014 13.354 71.212 13.165 71.392 12.931C71.536 12.733 71.662 12.544 71.77 12.364C71.896 12.184 72.103 12.067 72.391 12.013C72.913 11.905 73.282 12.022 73.498 12.364C73.714 12.688 73.759 13.084 73.633 13.552Z" fill="#222222"/>
<path d="M29.633 13.552C29.597 13.696 29.552 13.831 29.498 13.957C29.444 14.083 29.399 14.2 29.363 14.308C29.219 14.614 29.048 14.902 28.85 15.172C28.67 15.442 28.472 15.703 28.256 15.955C27.662 16.621 26.969 16.954 26.177 16.954C25.421 16.954 24.764 16.81 24.206 16.522C23.936 16.378 23.675 16.234 23.423 16.09C23.171 15.928 22.928 15.766 22.694 15.604C22.46 15.424 22.235 15.262 22.019 15.118C21.803 14.956 21.587 14.803 21.371 14.659C20.921 14.353 20.453 14.2 19.967 14.2C19.391 14.2 18.806 14.344 18.212 14.632C18.05 14.722 17.906 14.83 17.78 14.956C17.654 15.064 17.528 15.181 17.402 15.307C17.276 15.415 17.141 15.514 16.997 15.604C16.853 15.694 16.691 15.748 16.511 15.766C16.061 15.802 15.728 15.667 15.512 15.361C15.314 15.037 15.287 14.668 15.431 14.254C15.575 13.786 15.827 13.372 16.187 13.012C16.565 12.652 16.943 12.328 17.321 12.04C18.095 11.482 18.923 11.176 19.805 11.122C20.489 11.086 21.065 11.203 21.533 11.473C21.785 11.617 22.019 11.77 22.235 11.932C22.469 12.076 22.694 12.238 22.91 12.418C23.108 12.598 23.315 12.769 23.531 12.931C23.765 13.075 23.999 13.219 24.233 13.363C24.683 13.633 25.241 13.768 25.907 13.768C26.267 13.732 26.564 13.642 26.798 13.498C27.014 13.354 27.212 13.165 27.392 12.931C27.536 12.733 27.662 12.544 27.77 12.364C27.896 12.184 28.103 12.067 28.391 12.013C28.913 11.905 29.282 12.022 29.498 12.364C29.714 12.688 29.759 13.084 29.633 13.552Z" fill="#222222"/>
</svg>
