<svg width="50" height="50" viewBox="0 0 50 50" fill="none" xmlns="http://www.w3.org/2000/svg">
<path d="M25 22.9166C26.7259 22.9166 28.125 21.5175 28.125 19.7916C28.125 18.0657 26.7259 16.6666 25 16.6666C23.2741 16.6666 21.875 18.0657 21.875 19.7916C21.875 21.5175 23.2741 22.9166 25 22.9166Z" fill="#F69E4D"/>
<path d="M25 4.16663C20.6085 4.16641 16.3943 5.89946 13.2735 8.98911C10.1526 12.0788 8.37729 16.2753 8.33337 20.6666C8.33337 32.0833 23.0209 44.7916 23.6459 45.3333C24.0232 45.6561 24.5035 45.8334 25 45.8334C25.4966 45.8334 25.9768 45.6561 26.3542 45.3333C27.0834 44.7916 41.6667 32.0833 41.6667 20.6666C41.6228 16.2753 39.8475 12.0788 36.7266 8.98911C33.6058 5.89946 29.3916 4.16641 25 4.16663ZM25 27.0833C23.5579 27.0833 22.1481 26.6556 20.949 25.8544C19.7499 25.0532 18.8153 23.9144 18.2634 22.582C17.7115 21.2496 17.5671 19.7835 17.8485 18.3691C18.1298 16.9546 18.8243 15.6554 19.8441 14.6356C20.8638 13.6159 22.1631 12.9214 23.5775 12.6401C24.992 12.3587 26.4581 12.5031 27.7904 13.055C29.1228 13.6069 30.2616 14.5415 31.0628 15.7406C31.8641 16.9397 32.2917 18.3495 32.2917 19.7916C32.2917 21.7255 31.5235 23.5802 30.156 24.9476C28.7886 26.3151 26.9339 27.0833 25 27.0833V27.0833Z" fill="#F69E4D"/>
</svg>
