<svg width="174" height="24" viewBox="0 0 174 24" fill="none" xmlns="http://www.w3.org/2000/svg">
<g clip-path="url(#clip0_91_8818)">
<path d="M17.56 19.3397C17.4001 19.3402 17.2423 19.3109 17.1 19.2541L12 17.1766L6.90001 19.2541C6.7344 19.3219 6.54768 19.3521 6.36108 19.3414C6.17448 19.3307 5.99548 19.2795 5.84443 19.1936C5.69339 19.1077 5.57635 18.9905 5.50662 18.8554C5.43689 18.7203 5.41728 18.5727 5.45001 18.4294L6.45001 14.0488L2.33001 10.9364C2.20146 10.8366 2.11028 10.7115 2.06623 10.5744C2.02219 10.4373 2.02695 10.2935 2.08001 10.1584C2.13797 10.0201 2.24458 9.8972 2.38776 9.80368C2.53093 9.71016 2.70493 9.64973 2.89001 9.62926L8.59001 8.98346L11.1 4.9919C11.1819 4.86035 11.3097 4.74941 11.4689 4.67178C11.6281 4.59415 11.8121 4.55298 12 4.55298C12.1879 4.55298 12.3719 4.59415 12.5311 4.67178C12.6903 4.74941 12.8181 4.86035 12.9 4.9919L15.44 8.97568L21.14 9.62148C21.3251 9.64195 21.4991 9.70238 21.6423 9.7959C21.7854 9.88942 21.892 10.0123 21.95 10.1506C22.0031 10.2857 22.0078 10.4295 21.9638 10.5666C21.9197 10.7037 21.8285 10.8289 21.7 10.9287L17.58 14.041L18.58 18.4216C18.6157 18.5675 18.597 18.7182 18.5261 18.8561C18.4553 18.994 18.3352 19.1132 18.18 19.1997C17.9989 19.2984 17.7809 19.3476 17.56 19.3397V19.3397Z" fill="#F95F5F"/>
</g>
<g clip-path="url(#clip1_91_8818)">
<path d="M46.3167 19.3397C46.1568 19.3402 45.9991 19.3109 45.8567 19.2541L40.7567 17.1766L35.6567 19.2541C35.4911 19.3219 35.3044 19.3521 35.1178 19.3414C34.9312 19.3307 34.7522 19.2795 34.6011 19.1936C34.4501 19.1077 34.3331 18.9905 34.2633 18.8554C34.1936 18.7203 34.174 18.5727 34.2067 18.4294L35.2067 14.0488L31.0867 10.9364C30.9582 10.8366 30.867 10.7115 30.8229 10.5744C30.7789 10.4373 30.7837 10.2935 30.8367 10.1584C30.8947 10.0201 31.0013 9.8972 31.1445 9.80368C31.2876 9.71016 31.4616 9.64973 31.6467 9.62926L37.3467 8.98346L39.8567 4.9919C39.9386 4.86035 40.0665 4.74941 40.2256 4.67178C40.3848 4.59415 40.5689 4.55298 40.7567 4.55298C40.9446 4.55298 41.1286 4.59415 41.2878 4.67178C41.447 4.74941 41.5748 4.86035 41.6567 4.9919L44.1967 8.97568L49.8967 9.62148C50.0818 9.64195 50.2558 9.70238 50.399 9.7959C50.5421 9.88942 50.6488 10.0123 50.7067 10.1506C50.7598 10.2857 50.7645 10.4295 50.7205 10.5666C50.6764 10.7037 50.5853 10.8289 50.4567 10.9287L46.3367 14.041L47.3367 18.4216C47.3724 18.5675 47.3537 18.7182 47.2828 18.8561C47.212 18.994 47.0919 19.1132 46.9367 19.1997C46.7556 19.2984 46.5376 19.3476 46.3167 19.3397V19.3397Z" fill="#F95F5F"/>
</g>
<g clip-path="url(#clip2_91_8818)">
<path d="M75.0739 19.3397C74.914 19.3402 74.7563 19.3109 74.6139 19.2541L69.5139 17.1766L64.4139 19.2541C64.2483 19.3219 64.0616 19.3521 63.875 19.3414C63.6884 19.3307 63.5094 19.2795 63.3584 19.1936C63.2073 19.1077 63.0903 18.9905 63.0205 18.8554C62.9508 18.7203 62.9312 18.5727 62.9639 18.4294L63.9639 14.0488L59.8439 10.9364C59.7154 10.8366 59.6242 10.7115 59.5802 10.5744C59.5361 10.4373 59.5409 10.2935 59.5939 10.1584C59.6519 10.0201 59.7585 9.8972 59.9017 9.80368C60.0448 9.71016 60.2188 9.64973 60.4039 9.62926L66.1039 8.98346L68.6139 4.9919C68.6958 4.86035 68.8237 4.74941 68.9828 4.67178C69.142 4.59415 69.3261 4.55298 69.5139 4.55298C69.7018 4.55298 69.8858 4.59415 70.045 4.67178C70.2042 4.74941 70.332 4.86035 70.4139 4.9919L72.9539 8.97568L78.6539 9.62148C78.839 9.64195 79.013 9.70238 79.1562 9.7959C79.2993 9.88942 79.406 10.0123 79.4639 10.1506C79.517 10.2857 79.5217 10.4295 79.4777 10.5666C79.4336 10.7037 79.3425 10.8289 79.2139 10.9287L75.0939 14.041L76.0939 18.4216C76.1296 18.5675 76.1109 18.7182 76.0401 18.8561C75.9692 18.994 75.8491 19.1132 75.6939 19.1997C75.5128 19.2984 75.2948 19.3476 75.0739 19.3397V19.3397Z" fill="#F95F5F"/>
</g>
<g clip-path="url(#clip3_91_8818)">
<path d="M103.831 19.3397C103.671 19.3402 103.513 19.3109 103.371 19.2541L98.2706 17.1766L93.1706 19.2541C93.005 19.3219 92.8183 19.3521 92.6317 19.3414C92.4451 19.3307 92.2661 19.2795 92.1151 19.1936C91.964 19.1077 91.847 18.9905 91.7773 18.8554C91.7075 18.7203 91.6879 18.5727 91.7206 18.4294L92.7206 14.0488L88.6006 10.9364C88.4721 10.8366 88.3809 10.7115 88.3369 10.5744C88.2928 10.4373 88.2976 10.2935 88.3506 10.1584C88.4086 10.0201 88.5152 9.8972 88.6584 9.80368C88.8016 9.71016 88.9756 9.64973 89.1606 9.62926L94.8606 8.98346L97.3706 4.9919C97.4525 4.86035 97.5804 4.74941 97.7395 4.67178C97.8987 4.59415 98.0828 4.55298 98.2706 4.55298C98.4585 4.55298 98.6426 4.59415 98.8017 4.67178C98.9609 4.74941 99.0888 4.86035 99.1706 4.9919L101.711 8.97568L107.411 9.62148C107.596 9.64195 107.77 9.70238 107.913 9.7959C108.056 9.88942 108.163 10.0123 108.221 10.1506C108.274 10.2857 108.278 10.4295 108.234 10.5666C108.19 10.7037 108.099 10.8289 107.971 10.9287L103.851 14.041L104.851 18.4216C104.886 18.5675 104.868 18.7182 104.797 18.8561C104.726 18.994 104.606 19.1132 104.451 19.1997C104.27 19.2984 104.052 19.3476 103.831 19.3397V19.3397Z" fill="#F95F5F"/>
</g>
<g clip-path="url(#clip4_91_8818)">
<path d="M131.588 19.3397C131.428 19.3402 131.27 19.3109 131.128 19.2541L126.028 17.1766L120.928 19.2541C120.762 19.3219 120.576 19.3521 120.389 19.3414C120.202 19.3307 120.023 19.2795 119.872 19.1936C119.721 19.1077 119.604 18.9905 119.534 18.8554C119.465 18.7203 119.445 18.5727 119.478 18.4294L120.478 14.0488L116.358 10.9364C116.229 10.8366 116.138 10.7115 116.094 10.5744C116.05 10.4373 116.055 10.2935 116.108 10.1584C116.166 10.0201 116.272 9.8972 116.416 9.80368C116.559 9.71016 116.733 9.64973 116.918 9.62926L122.618 8.98346L125.128 4.9919C125.21 4.86035 125.338 4.74941 125.497 4.67178C125.656 4.59415 125.84 4.55298 126.028 4.55298C126.216 4.55298 126.4 4.59415 126.559 4.67178C126.718 4.74941 126.846 4.86035 126.928 4.9919L129.468 8.97568L135.168 9.62148C135.353 9.64195 135.527 9.70238 135.67 9.7959C135.813 9.88942 135.92 10.0123 135.978 10.1506C136.031 10.2857 136.036 10.4295 135.992 10.5666C135.948 10.7037 135.856 10.8289 135.728 10.9287L131.608 14.041L132.608 18.4216C132.644 18.5675 132.625 18.7182 132.554 18.8561C132.483 18.994 132.363 19.1132 132.208 19.1997C132.027 19.2984 131.809 19.3476 131.588 19.3397V19.3397Z" fill="#E5E5E5"/>
</g>
<path d="M157.949 16.0205H156.024V19H154.601V16.0205H148.387V14.79L154.504 6.08008H156.024V14.7021H157.949V16.0205ZM154.601 14.7021V10.501C154.601 10.1787 154.604 9.88867 154.609 9.63086C154.615 9.36719 154.624 9.12402 154.636 8.90137C154.647 8.67285 154.656 8.45605 154.662 8.25098C154.674 8.0459 154.683 7.84375 154.688 7.64453H154.618C154.507 7.87891 154.378 8.12793 154.231 8.3916C154.091 8.64941 153.947 8.88086 153.801 9.08594L149.837 14.7021H154.601ZM159.619 18.0859C159.619 17.6758 159.719 17.3857 159.918 17.2158C160.117 17.04 160.36 16.9521 160.647 16.9521C160.946 16.9521 161.198 17.04 161.403 17.2158C161.608 17.3857 161.711 17.6758 161.711 18.0859C161.711 18.4902 161.608 18.7861 161.403 18.9736C161.198 19.1553 160.946 19.2461 160.647 19.2461C160.36 19.2461 160.117 19.1553 159.918 18.9736C159.719 18.7861 159.619 18.4902 159.619 18.0859ZM172.407 12.5576C172.407 13.6006 172.328 14.5322 172.17 15.3525C172.012 16.1729 171.763 16.8672 171.423 17.4355C171.083 18.0039 170.644 18.4375 170.104 18.7363C169.565 19.0293 168.918 19.1758 168.162 19.1758C167.207 19.1758 166.416 18.915 165.789 18.3936C165.168 17.8721 164.702 17.1191 164.392 16.1348C164.087 15.1445 163.935 13.9521 163.935 12.5576C163.935 11.1865 164.072 10.0088 164.348 9.02441C164.629 8.03418 165.08 7.27539 165.701 6.74805C166.322 6.21484 167.143 5.94824 168.162 5.94824C169.129 5.94824 169.926 6.21191 170.553 6.73926C171.18 7.26074 171.646 8.0166 171.95 9.00684C172.255 9.99121 172.407 11.1748 172.407 12.5576ZM165.402 12.5576C165.402 13.7529 165.493 14.749 165.675 15.5459C165.856 16.3428 166.149 16.9404 166.554 17.3389C166.964 17.7314 167.5 17.9277 168.162 17.9277C168.824 17.9277 169.357 17.7314 169.762 17.3389C170.172 16.9463 170.468 16.3516 170.649 15.5547C170.837 14.7578 170.931 13.7588 170.931 12.5576C170.931 11.3799 170.84 10.3955 170.658 9.60449C170.477 8.80762 170.184 8.20996 169.779 7.81152C169.375 7.40723 168.836 7.20508 168.162 7.20508C167.488 7.20508 166.949 7.40723 166.545 7.81152C166.141 8.20996 165.848 8.80762 165.666 9.60449C165.49 10.3955 165.402 11.3799 165.402 12.5576Z" fill="#222222"/>
<defs>
<clipPath id="clip0_91_8818">
<rect width="24" height="18.6739" fill="white" transform="translate(0 3)"/>
</clipPath>
<clipPath id="clip1_91_8818">
<rect width="24" height="18.6739" fill="white" transform="translate(28.7568 3)"/>
</clipPath>
<clipPath id="clip2_91_8818">
<rect width="24" height="18.6739" fill="white" transform="translate(57.5139 3)"/>
</clipPath>
<clipPath id="clip3_91_8818">
<rect width="24" height="18.6739" fill="white" transform="translate(86.2708 3)"/>
</clipPath>
<clipPath id="clip4_91_8818">
<rect width="24" height="18.6739" fill="white" transform="translate(114.028 3)"/>
</clipPath>
</defs>
</svg>
