<svg width="120" height="120" viewBox="0 0 120 120" fill="none" xmlns="http://www.w3.org/2000/svg">
<mask id="mask0_1776_66090" style="mask-type:luminance" maskUnits="userSpaceOnUse" x="0" y="0" width="120" height="120">
<path d="M120 60C120 26.8629 93.1371 0 60 0C26.8629 0 0 26.8629 0 60C0 93.1371 26.8629 120 60 120C93.1371 120 120 93.1371 120 60Z" fill="white"/>
</mask>
<g mask="url(#mask0_1776_66090)">
<path d="M120 0H0V120H120V0Z" fill="#73B06F"/>
<path d="M21.1549 64.7893L83.3266 115.135C91.9107 122.086 104.505 120.763 111.456 112.178L161.802 50.0067C168.753 41.4226 167.429 28.8287 158.845 21.8774L96.6733 -28.4682C88.0892 -35.4195 75.4953 -34.0959 68.544 -25.5117L18.1984 36.6599C11.2471 45.2441 12.5708 57.838 21.1549 64.7893Z" fill="#405059"/>
<path d="M64.9061 48.3947C70.4619 51.8218 76.945 53.1674 84.3555 52.4314" stroke="white" stroke-width="2.22222" stroke-linecap="round"/>
<path d="M54.6251 33.8454C55.211 32.2729 54.8219 30.6238 53.7561 30.162C52.6903 29.7003 51.3513 30.6007 50.7654 32.1732C50.1796 33.7458 50.5686 35.3949 51.6344 35.8566C52.7002 36.3184 54.0392 35.4179 54.6251 33.8454Z" fill="white"/>
<path d="M100.717 41.1456C101.303 39.5731 100.914 37.924 99.8482 37.4622C98.7823 37.0005 97.4434 37.9009 96.8575 39.4735C96.2716 41.046 96.6607 42.6951 97.7265 43.1568C98.7923 43.6186 100.131 42.7181 100.717 41.1456Z" fill="white"/>
</g>
</svg>
