<svg width="120" height="120" viewBox="0 0 120 120" fill="none" xmlns="http://www.w3.org/2000/svg">
<g clip-path="url(#clip0_1776_66119)">
<mask id="mask0_1776_66119" style="mask-type:luminance" maskUnits="userSpaceOnUse" x="0" y="0" width="120" height="120">
<path d="M120 60C120 26.8629 93.1371 0 60 0C26.8629 0 0 26.8629 0 60C0 93.1371 26.8629 120 60 120C93.1371 120 120 93.1371 120 60Z" fill="white"/>
</mask>
<g mask="url(#mask0_1776_66119)">
<path d="M120 0H0V120H120V0Z" fill="#405059"/>
<path d="M126.015 91.5021C137.89 60.5659 122.438 25.8604 91.5021 13.9852C60.5659 2.1099 25.8604 17.5618 13.9852 48.4979C2.1099 79.434 17.5618 114.14 48.4979 126.015C79.434 137.89 114.14 122.438 126.015 91.5021Z" fill="#EDD75A"/>
<path d="M33.4329 63.1583C39.78 65.7539 46.3936 66.1548 53.2737 64.3608" stroke="black" stroke-width="2.22222" stroke-linecap="round"/>
<path d="M31.6202 49.9624C31.7754 48.2126 30.8818 46.7009 29.6243 46.5859C28.3668 46.471 27.2217 47.7963 27.0665 49.5461C26.9113 51.296 27.8049 52.8077 29.0624 52.9226C30.3198 53.0375 31.465 51.7122 31.6202 49.9624Z" fill="black"/>
<path d="M58.2828 50.4278C58.4379 48.678 57.5444 47.1663 56.2869 47.0513C55.0294 46.9364 53.8843 48.2617 53.7291 50.0115C53.5739 51.7614 54.4675 53.2731 55.725 53.388C56.9824 53.5029 58.1276 52.1776 58.2828 50.4278Z" fill="black"/>
</g>
</g>
<defs>
<clipPath id="clip0_1776_66119">
<rect width="120" height="120" fill="white"/>
</clipPath>
</defs>
</svg>
