<svg width="120" height="120" viewBox="0 0 120 120" fill="none" xmlns="http://www.w3.org/2000/svg">
<mask id="mask0_1776_66109" style="mask-type:luminance" maskUnits="userSpaceOnUse" x="0" y="0" width="120" height="120">
<path d="M120 60C120 26.8629 93.1371 0 60 0C26.8629 0 0 26.8629 0 60C0 93.1371 26.8629 120 60 120C93.1371 120 120 93.1371 120 60Z" fill="white"/>
</mask>
<g mask="url(#mask0_1776_66109)">
<path d="M120 0.000427246H0V120H120V0.000427246Z" fill="#FFAD08"/>
<path d="M53.1402 109.918C86.2319 108.184 111.652 79.9516 109.918 46.8599C108.184 13.7682 79.9516 -11.652 46.8599 -9.9177C13.7682 -8.18344 -11.652 20.0486 -9.91773 53.1402C-8.18347 86.2319 20.0485 111.652 53.1402 109.918Z" fill="#73B06F"/>
<path d="M27.1475 61.7061C34.2587 63.3486 40.8464 62.3655 46.9104 58.7566" stroke="black" stroke-width="2.22222" stroke-linecap="round"/>
<path d="M20.3188 48.3348C19.9613 46.6371 18.6685 45.5023 17.4312 45.8001C16.194 46.098 15.4809 47.7156 15.8384 49.4133C16.196 51.111 17.4888 52.2458 18.726 51.9479C19.9633 51.6501 20.6764 50.0324 20.3188 48.3348Z" fill="black"/>
<path d="M53.4035 44.2724C53.046 42.5748 51.7532 41.44 50.5159 41.7378C49.2787 42.0357 48.5656 43.6533 48.9232 45.351C49.2807 47.0487 50.5735 48.1834 51.8108 47.8856C53.048 47.5878 53.7611 45.9701 53.4035 44.2724Z" fill="black"/>
</g>
</svg>
