<svg width="40" height="40" viewBox="0 0 40 40" fill="none" xmlns="http://www.w3.org/2000/svg">
<path d="M23.755 16.4196C23.9356 16.9415 24.5051 17.2182 25.027 17.0376C25.5489 16.857 25.8256 16.2875 25.645 15.7656L23.755 16.4196ZM22 14.0556L22.0439 13.0565C22.0293 13.0559 22.0146 13.0556 22 13.0556L22 14.0556ZM18 20.1667V21.1667V20.1667ZM22 26.2778L22 27.2778L22 26.2778ZM18 26.2778L17.9561 27.2768C17.9707 27.2774 17.9853 27.2778 18 27.2778V26.2778ZM16.245 23.9137C16.0644 23.3918 15.4949 23.1151 14.973 23.2957C14.4511 23.4763 14.1744 24.0458 14.355 24.5677L16.245 23.9137ZM21 11C21 10.4477 20.5523 10 20 10C19.4477 10 19 10.4477 19 11H21ZM19 14.0556C19 14.6078 19.4477 15.0556 20 15.0556C20.5523 15.0556 21 14.6078 21 14.0556H19ZM21 26.2778C21 25.7255 20.5523 25.2778 20 25.2778C19.4477 25.2778 19 25.7255 19 26.2778H21ZM19 29.3333C19 29.8856 19.4477 30.3333 20 30.3333C20.5523 30.3333 21 29.8856 21 29.3333H19ZM25.645 15.7656C25.3817 15.0047 24.8999 14.3385 24.2585 13.8547L23.054 15.4512C23.375 15.6934 23.6202 16.03 23.755 16.4196L25.645 15.7656ZM24.2585 13.8547C23.617 13.3706 22.8457 13.0918 22.0439 13.0565L21.9561 15.0546C22.3508 15.0719 22.7332 15.2092 23.054 15.4512L24.2585 13.8547ZM22 13.0556H18V15.0556H22V13.0556ZM18 13.0556C16.9331 13.0556 15.9138 13.4874 15.1651 14.2499L16.5922 15.6511C16.9688 15.2676 17.4755 15.0556 18 15.0556V13.0556ZM15.1651 14.2499C14.417 15.0118 14 16.0414 14 17.1111H16C16 16.5601 16.2151 16.0352 16.5922 15.6511L15.1651 14.2499ZM14 17.1111C14 18.1808 14.417 19.2104 15.1651 19.9723L16.5922 18.5711C16.2151 18.187 16 17.6621 16 17.1111H14ZM15.1651 19.9723C15.9138 20.7348 16.9331 21.1667 18 21.1667L18 19.1667C17.4755 19.1667 16.9688 18.9546 16.5922 18.5711L15.1651 19.9723ZM18 21.1667H22V19.1667H18V21.1667ZM22 21.1667C22.5244 21.1667 23.0312 21.3787 23.4078 21.7622L24.8349 20.361C24.0862 19.5985 23.0668 19.1667 22 19.1667V21.1667ZM23.4078 21.7622C23.7849 22.1463 24 22.6712 24 23.2222H26C26 22.1525 25.5829 21.1229 24.8349 20.361L23.4078 21.7622ZM24 23.2222C24 23.7732 23.7849 24.2981 23.4078 24.6822L24.8349 26.0834C25.5829 25.3215 26 24.292 26 23.2222H24ZM23.4078 24.6822C23.0312 25.0657 22.5244 25.2778 22 25.2778L22 27.2778C23.0668 27.2778 24.0862 26.8459 24.8349 26.0834L23.4078 24.6822ZM22 25.2778H18V27.2778H22V25.2778ZM18.0439 25.2787C17.6492 25.2614 17.2668 25.1241 16.946 24.8821L15.7415 26.4787C16.383 26.9627 17.1543 27.2415 17.9561 27.2768L18.0439 25.2787ZM16.946 24.8821C16.625 24.6399 16.3798 24.3033 16.245 23.9137L14.355 24.5677C14.6183 25.3286 15.1001 25.9948 15.7415 26.4787L16.946 24.8821ZM19 11V14.0556H21V11H19ZM19 26.2778V29.3333H21V26.2778H19ZM35 20C35 28.2843 28.2843 35 20 35V37C29.3888 37 37 29.3888 37 20H35ZM20 35C11.7157 35 5 28.2843 5 20H3C3 29.3888 10.6112 37 20 37V35ZM5 20C5 11.7157 11.7157 5 20 5V3C10.6112 3 3 10.6112 3 20H5ZM20 5C28.2843 5 35 11.7157 35 20H37C37 10.6112 29.3888 3 20 3V5Z" fill="black"/>
</svg>
